<svg width="26" height="26" fill="none" xmlns="http://www.w3.org/2000/svg">
  <path fill-rule="evenodd" clip-rule="evenodd" d="M25 13.432C24.992 6.57 19.43 1.008 12.568 1a.671.671 0 0 0 0 1.342c6.122.007 11.083 4.968 11.09 11.09a.671.671 0 0 0 1.342 0Zm-6.239 11.545a11.071 11.071 0 0 1-3.318-.58 21.218 21.218 0 0 1-8.37-5.45C2.86 14.733 1.043 11.49 1 8.097a.67.67 0 0 1 .663-.678h.008c.367 0 .666.295.67.662.039 3.008 1.738 5.974 5.681 9.918 6.042 6.042 10.825 5.649 11.077 5.623a5.02 5.02 0 0 0 1.235-.31 4.832 4.832 0 0 0 1.203-.682.703.703 0 0 1 .1-.065l.823-.806c.43-.411.448-1.092.042-1.526l-3.365-3.366a1.083 1.083 0 0 0-1.526.047l-1.696 1.696a.671.671 0 0 1-.798.113l-.34-.189a16.553 16.553 0 0 1-7.289-7.29l-.034-.06c-.05-.092-.1-.18-.148-.265a.67.67 0 0 1 .109-.808l1.697-1.696c.432-.41.453-1.092.045-1.526L5.791 3.522a1.008 1.008 0 0 0-.74-.292 1.137 1.137 0 0 0-.779.332l-.893.95a4.685 4.685 0 0 0-.445.697.671.671 0 0 1-1.19-.62 6.01 6.01 0 0 1 .636-.975l.923-.98.014-.014a2.472 2.472 0 0 1 1.709-.731 2.335 2.335 0 0 1 1.714.684l3.366 3.367c.93.959.91 2.49-.045 3.423l-1.34 1.339a15.134 15.134 0 0 0 6.603 6.6l1.338-1.337a2.426 2.426 0 0 1 3.422-.048l3.367 3.368c.93.96.91 2.489-.044 3.424l-.006.006-.96.94a.67.67 0 0 1-.233.15 6.362 6.362 0 0 1-2.954 1.15h-.01c-.16.016-.322.023-.483.022ZM13.084 5.364a7.56 7.56 0 0 1 7.552 7.552.67.67 0 1 1-1.342 0 6.218 6.218 0 0 0-6.21-6.21.671.671 0 0 1 0-1.342Z" fill="#F9572E"/>
  <path d="M12.568 1V.75 1ZM25 13.432h.25H25ZM12.568 2.342v-.25.25Zm11.09 11.09h.25-.25Zm.336.582-.125.216.125-.216Zm.67 0-.124-.217.125.216Zm-9.221 10.383-.083.236.003.001.08-.237Zm3.318.58-.005.25h.003l.002-.25Zm-11.688-6.03.182-.171-.005-.005-.177.176ZM1 8.097l.25-.002-.25.003Zm.19-.476-.178-.175.179.175Zm.473-.203v-.25h-.004l.004.25Zm.008 0v-.25.25Zm.67.663.25-.003-.25.003Zm5.681 9.918.177-.177-.177.177ZM19.1 23.622l.026.249h.004l-.03-.249Zm1.235-.31-.091-.234.09.233Zm1.203-.682.153.197-.153-.197Zm.1-.065.118.22.031-.017.025-.024-.174-.18Zm.823-.806-.173-.18-.002.001.175.179Zm.042-1.526.182-.171-.005-.006-.177.177Zm-3.365-3.366.176-.176-.006-.006-.17.183Zm-1.526.047.177.177.005-.005-.182-.172Zm-1.696 1.696.177.177-.177-.177Zm-.798.113-.12.22.12-.22Zm-.34-.189.124-.218-.01-.005-.113.223Zm-7.289-7.29.223-.112-.004-.009-.219.122Zm-.034-.06-.219.12v.001l.22-.121Zm-.148-.265.217-.124-.217.124Zm.109-.808.176.177-.176-.177Zm1.697-1.696-.172-.181-.005.004.177.177Zm.045-1.526.183-.171-.006-.006-.177.177ZM5.791 3.522l.177-.177-.177.177Zm-.74-.292.005.25h.003l-.008-.25Zm-.779.332-.176-.177-.006.006.182.171Zm-.893.95-.182-.172-.009.009-.007.01.198.152Zm-.445.697.222.115-.222-.115Zm-.566.36-.011-.25.01.25Zm-.624-.98.222.115-.222-.115Zm.596-.929-.196-.154.196.154Zm.04-.046-.182-.171-.001.001.183.17Zm.923-.98-.18-.174-.002.003.182.172Zm.014-.014-.178-.176-.001.001.179.175Zm1.709-.731.004.25h.002l-.006-.25Zm1.714.684-.177.177.177-.177Zm3.366 3.367.18-.174-.003-.003-.177.177Zm-.045 3.423-.175-.178-.002.002.177.176Zm-1.34 1.339-.176-.177-.129.129.083.162.223-.114Zm6.603 6.6-.114.223.162.083.129-.129-.177-.177Zm1.338-1.337.177.177.002-.002-.179-.175Zm3.422-.048.177-.176-.003-.003-.174.18Zm3.367 3.368.18-.174-.003-.003-.177.177Zm-.044 3.424-.175-.178-.002.001.177.177Zm-.006.006.175.178.002-.002-.177-.176Zm-.96.94-.175-.178.174.179Zm-.233.15-.088-.235-.032.012-.027.02.147.202Zm-1.387.756-.09-.233h-.002l.092.233Zm-1.567.394.027.248h.002l-.03-.248Zm-.01 0 .024.25h.005l-.028-.25Zm1.392-12.039h-.25v.001h.25Zm-7.552-7.552v-.25.25ZM20.3 13.5l-.125-.217.125.217Zm-.672 0 .125-.217-.125.217Zm-.335-.583h.25-.25Zm-6.21-6.21v-.25.25Zm-.517-5.457c6.726.008 12.175 5.457 12.183 12.183l.5-.001C25.242 6.432 19.569.758 12.568.75v.5Zm-.42.421c0-.232.188-.421.42-.421v-.5a.921.921 0 0 0-.92.921h.5Zm.42.421a.421.421 0 0 1-.42-.42h-.5c0 .508.412.92.92.92v-.5Zm11.341 11.34c-.007-6.26-5.08-11.333-11.34-11.34v.5c5.984.007 10.833 4.856 10.84 10.84h.5Zm.21.365a.42.42 0 0 1-.21-.364h-.5a.92.92 0 0 0 .46.797l.25-.433Zm.422 0a.42.42 0 0 1-.421 0l-.25.433a.921.921 0 0 0 .92 0l-.25-.433Zm.21-.365c0 .15-.08.29-.21.365l.25.433a.92.92 0 0 0 .46-.798h-.5Zm-9.387 11.202c1.094.37 2.238.57 3.393.593l.01-.5a10.823 10.823 0 0 1-3.243-.567l-.16.474ZM6.89 19.12a21.468 21.468 0 0 0 8.469 5.514l.166-.471a20.968 20.968 0 0 1-8.27-5.386l-.365.343ZM.751 8.1c.043 3.49 1.917 6.795 6.145 11.023l.354-.353c-4.2-4.2-5.959-7.385-6-10.676l-.5.006Zm.26-.655a.92.92 0 0 0-.26.655l.499-.006a.421.421 0 0 1 .12-.3l-.358-.349Zm.648-.277a.92.92 0 0 0-.647.277l.358.35a.42.42 0 0 1 .296-.128l-.007-.5Zm.012 0h-.008v.5h.008v-.5Zm.92.909a.921.921 0 0 0-.92-.91v.5c.23 0 .418.186.42.416l.5-.006ZM8.2 17.822c-3.933-3.933-5.57-6.838-5.607-9.744l-.5.006c.04 3.11 1.8 6.137 5.754 10.091l.353-.353Zm10.875 5.551c-.186.02-4.892.432-10.875-5.551l-.353.353c6.1 6.102 10.96 5.728 11.279 5.696l-.05-.498Zm1.168-.295c-.377.148-.77.248-1.172.296l.06.496a5.27 5.27 0 0 0 1.295-.326l-.183-.466Zm1.142-.646a4.581 4.581 0 0 1-1.141.646l.181.466a5.08 5.08 0 0 0 1.266-.717l-.306-.395Zm.134-.087a.956.956 0 0 0-.135.088l.308.394a.457.457 0 0 1 .064-.042l-.237-.44Zm.767-.765-.823.806.35.358.822-.806-.35-.358Zm.034-1.176a.836.836 0 0 1-.032 1.174l.345.361a1.335 1.335 0 0 0 .052-1.877l-.365.342Zm-3.36-3.36 3.366 3.366.354-.354-3.366-3.365-.353.353Zm-1.166.042a.833.833 0 0 1 1.173-.036l.341-.365a1.333 1.333 0 0 0-1.877.057l.363.344Zm-1.701 1.7 1.696-1.695-.354-.354-1.696 1.696.354.354Zm-1.095.156a.921.921 0 0 0 1.095-.155l-.354-.354a.421.421 0 0 1-.5.071l-.241.438Zm-.342-.19.341.19.242-.438a38.39 38.39 0 0 1-.337-.187l-.246.435Zm-7.39-7.394a16.803 16.803 0 0 0 7.4 7.4l.226-.447a16.302 16.302 0 0 1-7.18-7.18l-.446.227Zm-.03-.053.035.061.437-.243-.034-.061-.437.243Zm-.146-.262c.048.083.096.17.146.262l.438-.242c-.05-.092-.1-.181-.15-.268l-.434.248Zm.15-1.109a.92.92 0 0 0-.15 1.109l.434-.248a.42.42 0 0 1 .068-.507l-.353-.354Zm1.696-1.696L7.238 9.934l.353.354 1.697-1.696-.353-.354Zm.04-1.178a.833.833 0 0 1-.035 1.174l.344.363a1.333 1.333 0 0 0 .055-1.88l-.364.343Zm-3.36-3.361L8.98 7.066l.354-.354-3.366-3.367-.353.354Zm-.556-.219a.758.758 0 0 1 .556.22l.352-.355a1.258 1.258 0 0 0-.923-.364l.015.5Zm-.61.26a.887.887 0 0 1 .607-.26l-.01-.5a1.387 1.387 0 0 0-.95.405l.353.354Zm-.888.943.893-.95-.364-.342-.893.949.364.343Zm-.405.641c.12-.232.261-.453.42-.66l-.395-.305c-.178.23-.335.476-.469.735l.444.23Zm-.777.495a.921.921 0 0 0 .777-.495l-.444-.23a.421.421 0 0 1-.355.225l.022.5Zm-.817-.426c.177.278.488.44.817.426l-.022-.5a.421.421 0 0 1-.373-.194l-.422.268Zm-.04-.92a.921.921 0 0 0 .04.92l.422-.268a.421.421 0 0 1-.018-.42l-.444-.232Zm.621-.967a6.261 6.261 0 0 0-.621.967l.444.23a5.76 5.76 0 0 1 .571-.889l-.394-.308Zm.054-.062a.97.97 0 0 0-.053.062l.393.308a.472.472 0 0 1 .026-.03l-.366-.34Zm.924-.98-.923.979.364.343.923-.98-.364-.343Zm.017-.019-.014.015.357.35.014-.015-.357-.35ZM5.02 1.64a2.722 2.722 0 0 0-1.882.805l.355.352c.407-.41.958-.646 1.536-.657l-.009-.5Zm1.896.758a2.585 2.585 0 0 0-1.898-.758l.013.5a2.085 2.085 0 0 1 1.53.611l.355-.353Zm3.366 3.366L6.917 2.397l-.354.353L9.93 6.117l.354-.354Zm-.048 3.78a2.675 2.675 0 0 0 .05-3.777l-.359.348c.835.86.817 2.233-.04 3.07l.35.358Zm-1.337 1.336 1.34-1.339-.354-.353-1.34 1.338.354.354Zm6.54 6.2a14.885 14.885 0 0 1-6.494-6.49l-.445.227a15.384 15.384 0 0 0 6.711 6.71l.228-.446Zm1.047-1.291-1.338 1.338.354.353 1.338-1.337-.354-.354Zm3.773-.05a2.676 2.676 0 0 0-3.775.052l.358.35a2.176 2.176 0 0 1 3.07-.043l.347-.36Zm3.37 3.37-3.367-3.367-.354.353 3.367 3.367.354-.353Zm-.046 3.78a2.68 2.68 0 0 0 .049-3.777l-.36.348a2.18 2.18 0 0 1-.039 3.072l.35.357Zm-.004.003.006-.005-.354-.354-.005.006.353.353Zm-.963.943.962-.94-.35-.358-.962.941.35.357Zm-.32.204a.92.92 0 0 0 .32-.204l-.35-.357a.42.42 0 0 1-.146.093l.177.468Zm-1.384.756c.513-.199.998-.464 1.444-.787l-.294-.405a5.89 5.89 0 0 1-1.33.726l.18.466Zm-1.628.41a6.608 6.608 0 0 0 1.629-.41l-.183-.466c-.483.19-.99.317-1.505.379l.06.496Zm-.01 0h.009l-.056-.498-.01.002.057.496Zm-.514.023c.17.001.34-.006.51-.022l-.048-.498a4.557 4.557 0 0 1-.458.02l-.004.5Zm2.127-12.31a7.81 7.81 0 0 0-7.802-7.803v.5a7.31 7.31 0 0 1 7.302 7.303h.5Zm-.46.799a.921.921 0 0 0 .46-.8l-.5.001c0 .151-.08.29-.21.366l.25.433Zm-.922 0a.921.921 0 0 0 .923 0l-.251-.433a.42.42 0 0 1-.422 0l-.25.433Zm-.46-.8a.92.92 0 0 0 .46.8l.25-.433a.42.42 0 0 1-.21-.365l-.5-.002Zm-5.96-5.96a5.968 5.968 0 0 1 5.96 5.961h.5a6.468 6.468 0 0 0-6.46-6.46v.5Zm-.921-.92c0 .508.412.92.92.92v-.5a.421.421 0 0 1-.42-.42h-.5Zm.92-.922a.921.921 0 0 0-.92.921h.5c0-.232.188-.42.42-.42v-.5Z" fill="#F9572E"/>
</svg>
