<svg width="32" height="22" fill="none" xmlns="http://www.w3.org/2000/svg">
  <path fill-rule="evenodd" clip-rule="evenodd" d="M31 3.49a2.471 2.471 0 0 0-.657-1.662.09.09 0 0 1-.015-.027c-.008-.008-.018-.01-.026-.018A2.512 2.512 0 0 0 28.48 1H3.52c-.69 0-1.35.283-1.827.783-.007.008-.017.01-.022.02a.088.088 0 0 0-.015.028A2.453 2.453 0 0 0 1 3.49v14.683c.001.632.247 1.239.685 1.694a.16.16 0 0 0 .02.03c.002.003.008.003.01.008a2.519 2.519 0 0 0 1.805.76H28.48a2.52 2.52 0 0 0 1.806-.762l.01-.005c.007-.008.01-.02.02-.028A2.468 2.468 0 0 0 31 18.174V3.49Zm-9.82 6.568 8.645-7.169c.087.189.133.394.134.602v14.683c0 .188-.038.375-.109.55l-8.67-8.666Zm7.299-8.03c.21 0 .417.045.609.131L15.998 13.01 2.912 2.16c.191-.087.399-.132.609-.132h24.958ZM2.149 18.724a1.439 1.439 0 0 1-.111-.55V3.49c0-.208.047-.413.136-.602l8.647 7.169-8.672 8.666Zm1.372.914a1.502 1.502 0 0 1-.665-.161l8.763-8.758 4.046 3.355a.52.52 0 0 0 .667 0l4.05-3.355 8.76 8.758c-.205.104-.432.16-.663.161H3.52Z" fill="#F9572E"/>
  <path d="M31 3.49h.35V3.49L31 3.49Zm-.657-1.662-.27.223.006.007.007.008.257-.238Zm-.015-.027.33-.114-.026-.077-.057-.057-.247.248Zm-.026-.018-.254.241.007.006.247-.247ZM28.48 1v.35V1ZM3.52 1V.65 1Zm-1.827.783.249.247.005-.006-.254-.241Zm-.022.02.274.218.02-.025.015-.028-.31-.165Zm-.015.028.256.238.053-.057.024-.073-.333-.108ZM1 3.49l-.35-.002v.002H1Zm0 14.683H.65 1Zm.685 1.694.312-.159-.024-.046-.036-.037-.252.242Zm.02.03-.27.224.012.014.012.012.246-.25Zm.01.008-.322.137.025.06.046.047.25-.244Zm1.805.76v-.35.35Zm24.959 0v.35-.35Zm1.806-.762-.157-.313-.053.026-.041.043.25.244Zm.01-.005.156.313.059-.03.044-.047-.259-.236Zm.02-.028.21.28.023-.017.02-.021-.253-.242ZM31 18.174h.35H31Zm-9.82-8.116-.224-.27-.296.246.272.271.247-.247Zm8.645-7.169.318-.146-.19-.413-.351.29.223.27Zm.134.602h.35v-.002l-.35.002Zm0 14.683h.35-.35Zm-.109.55-.247.247.373.373.199-.488-.325-.132ZM28.48 2.028v-.35.35Zm.609.131.223.27.433-.358-.512-.23-.144.318ZM15.998 13.01l-.223.27.223.185.224-.185-.224-.27ZM2.912 2.16l-.144-.32-.511.23.432.359.223-.27Zm.609-.132v-.35.35ZM2.149 18.724l-.323.135.201.481.37-.369-.248-.247Zm-.111-.55h-.35.35Zm0-14.683-.35-.002v.002h.35Zm.136-.602.224-.269-.348-.288-.192.408.316.15Zm8.647 7.169.247.248.272-.272-.296-.246-.223.27Zm-7.3 9.58-.004.35h.004v-.35Zm-.665-.161-.247-.248-.342.342.432.218.157-.312Zm8.763-8.758.223-.27-.245-.203-.226.226.248.247Zm4.046 3.355.225-.269h-.001l-.224.269Zm.667 0-.223-.27-.001.001.224.269Zm4.05-3.355.247-.247-.226-.225-.245.203.223.27Zm8.76 8.758.159.312.431-.218-.342-.342-.247.248Zm-.663.161v.35h.003l-.003-.35Zm2.871-16.15a2.822 2.822 0 0 0-.75-1.897l-.514.475c.36.389.56.898.564 1.427l.7-.004Zm-.737-1.882a.26.26 0 0 1 .046.081l-.663.227a.44.44 0 0 0 .077.137l.54-.445Zm-.038-.053a.385.385 0 0 0-.062-.05c-.008-.005-.014-.01-.018-.011a.317.317 0 0 0 .008.005c.01.007.028.02.047.039l-.495.494a.393.393 0 0 0 .088.067c.002.001 0 0 0 0a.28.28 0 0 1-.063-.049l.495-.495Zm-.019-.01A2.863 2.863 0 0 0 28.48.65v.7c.593 0 1.16.243 1.57.674l.507-.482ZM28.48.65H3.52v.7h24.958v-.7ZM3.52.65c-.786 0-1.537.323-2.079.892l.507.482c.41-.43.978-.674 1.573-.674v-.7Zm-2.074.886a.304.304 0 0 1 .039-.033l.004-.003-.002.002a.38.38 0 0 0-.124.137l.618.329c-.037.069-.088.104-.098.111l-.002.001a.454.454 0 0 0 .062-.05l-.497-.494Zm-.048.05a.439.439 0 0 0-.074.137l.666.216a.262.262 0 0 1-.044.082l-.548-.436Zm.003.007A2.803 2.803 0 0 0 .65 3.489l.7.003a2.103 2.103 0 0 1 .563-1.423l-.512-.476ZM.65 3.49v14.683h.7V3.49h-.7Zm0 14.683c.002.723.282 1.416.782 1.937l.505-.485a2.104 2.104 0 0 1-.587-1.453l-.7.001Zm.723 1.853a.516.516 0 0 0 .062.095l.54-.447c.008.01.015.022.022.034l-.624.318Zm.086.121a.361.361 0 0 0 .104.071l.004.002-.008-.003a.34.34 0 0 1-.166-.175l.643-.275a.356.356 0 0 0-.175-.182l-.008-.004H1.85v-.001l.01.005c.013.006.051.025.09.063l-.49.5Zm.005.002a2.87 2.87 0 0 0 2.057.866v-.7a2.169 2.169 0 0 1-1.556-.654l-.501.488Zm2.056.866H28.48v-.7H3.52v.7Zm24.959 0a2.87 2.87 0 0 0 2.056-.868l-.501-.488a2.17 2.17 0 0 1-1.555.656v.7Zm1.962-.799.01-.005-.312-.626-.01.005.312.626Zm.113-.082a.375.375 0 0 0 .047-.064l.008-.014c.001-.003 0-.001 0 0a.316.316 0 0 1-.083.094l-.421-.56c-.066.05-.098.108-.106.122a.306.306 0 0 0-.003.005v.001l.003-.005a.314.314 0 0 1 .038-.051l.517.472Zm.014-.022c.5-.522.78-1.216.782-1.938l-.7-.003a2.117 2.117 0 0 1-.588 1.457l.506.484Zm.782-1.94V3.492h-.7v14.683h.7Zm-9.948-7.846 8.646-7.168-.446-.539-8.646 7.168.447.54Zm8.105-7.29c.066.142.101.298.102.456l.7-.004a1.804 1.804 0 0 0-.166-.746l-.636.293Zm.102.454v14.683h.7V3.49h-.7Zm0 14.681c0 .144-.029.287-.083.42l.649.264c.087-.216.133-.448.134-.681l-.7-.003Zm.489.304L21.427 9.81l-.495.495 8.67 8.666.496-.495Zm-1.62-16.098c.161 0 .32.035.466.1l.288-.638a1.84 1.84 0 0 0-.753-.162v.7Zm.387-.488-13.09 10.85.447.54 13.09-10.851-.447-.54ZM16.222 12.74 3.135 1.89l-.446.539 13.086 10.85.447-.538ZM3.056 2.478c.146-.065.305-.1.465-.1v-.7c-.26 0-.516.056-.753.162l.288.638Zm.465-.1h24.958v-.7H3.52v.7ZM2.472 18.59a1.09 1.09 0 0 1-.084-.416l-.7.002c0 .235.048.467.138.684l.646-.27Zm-.084-.415V3.49h-.7v14.683h.7Zm0-14.681c0-.157.036-.312.103-.454l-.633-.299c-.11.234-.169.49-.17.749l.7.004Zm-.437-.334 8.647 7.168.446-.539L2.398 2.62l-.447.539Zm8.623 6.651-8.672 8.666.494.495 8.672-8.665-.495-.496Zm-7.05 9.478a1.15 1.15 0 0 1-.51-.124l-.315.625c.254.128.534.197.818.2l.007-.7Zm-.42.436 8.762-8.757-.495-.495-8.762 8.757.495.495Zm8.291-8.735 4.047 3.354.447-.538-4.047-3.355-.447.539Zm4.046 3.354a.87.87 0 0 0 1.115 0l-.448-.538a.17.17 0 0 1-.218 0l-.449.538Zm1.114 0 4.05-3.354-.447-.54-4.05 3.356.447.539Zm3.579-3.376 8.761 8.757.495-.495-8.761-8.757-.495.495Zm8.85 8.197c-.157.08-.331.123-.508.124l.006.7a1.85 1.85 0 0 0 .819-.2l-.316-.624Zm-.505.124H3.52v.7h24.958v-.7Z" fill="#F9572E"/>
</svg>
